# xmcd
#
# Track frame offsets:
#	150
#	8526
#	16805
#	25474
#	35286
#	44580
#	55943
#	65172
#	76909
#	85622
#	96196
#	108152
#
# Disc length: 1557 seconds
#
# Revision: 0
# Processed by: cddbd v1.5.2PL0 Copyright (c) Steve Scherf et al.
# Submitted via: EasyCDDAExtractor 2010.3.0.0
#
DISCID=8806130c
DTITLE=Stringbean - Way Back In The Hills Of Old Kentucky
DYEAR=1900
DGENRE=Country
TTITLE0=Little Pink (Starday)
TTITLE1=Big Ball In Nashville (Starday)
TTITLE2=Poor Ellen Smith (Starday)
TTITLE3=Old Cumberland Gap (Starday)
TTITLE4=Little Adobe Shack (Starday)
TTITLE5=Roving Gambler (Starday)
TTITLE6=Black Eyed Susy (Starday)
TTITLE7=Short Life And Trouble (Starday)
TTITLE8=Little Sally Goodin' (Starday)
TTITLE9=Banjo Pickin' Girl (Starday)
TTITLE10=Rye Whiskey (Starday)
TTITLE11=Honey Babe I'm Bound To Ride (Starday)
EXTD=
EXTT0=
EXTT1=
EXTT2=
EXTT3=
EXTT4=
EXTT5=
EXTT6=
EXTT7=
EXTT8=
EXTT9=
EXTT10=
EXTT11=
PLAYORDER=
